Highland Code Italic.ufo
<glyph name="zero" format="1">
  <advance width="1228"/>
  <unicode hex="0030"/>
  <outline>
    <contour>
      <point x="371" y="1209"/>
      <point x="212" y="747"/>
      <point x="212" y="431" type="curve" smooth="yes"/>
      <point x="212" y="158"/>
      <point x="337" y="-22"/>
      <point x="553" y="-22" type="curve" smooth="yes"/>
      <point x="926" y="-22"/>
      <point x="1085" y="440"/>
      <point x="1085" y="756" type="curve" smooth="yes"/>
      <point x="1085" y="1029"/>
      <point x="960" y="1209"/>
      <point x="744" y="1209" type="curve" smooth="yes"/>
    </contour>
    <contour>
      <point x="855" y="1061"/>
      <point x="934" y="954"/>
      <point x="934" y="761" type="curve" smooth="yes"/>
      <point x="934" y="484"/>
      <point x="800" y="126"/>
      <point x="566" y="126" type="curve" smooth="yes"/>
      <point x="441" y="126"/>
      <point x="363" y="232"/>
      <point x="363" y="426" type="curve" smooth="yes"/>
      <point x="363" y="703"/>
      <point x="497" y="1061"/>
      <point x="731" y="1061" type="curve" smooth="yes"/>
    </contour>
    <contour>
      <point x="298" y="349" type="line"/>
      <point x="345" y="209" type="line"/>
      <point x="991" y="829" type="line"/>
      <point x="957" y="981" type="line"/>
    </contour>
  </outline>
</glyph>
<glyph name="one" format="1">
  <advance width="1228"/>
  <unicode hex="0031"/>
  <outline>
    <contour>
      <point x="340" y="961" type="line" smooth="yes"/>
      <point x="307" y="943"/>
      <point x="296" y="915"/>
      <point x="320" y="869" type="curve" smooth="yes"/>
      <point x="344" y="823"/>
      <point x="374" y="816"/>
      <point x="404" y="833" type="curve" smooth="yes"/>
      <point x="719" y="1010" type="line"/>
      <point x="682" y="1038" type="line"/>
      <point x="518" y="108" type="line"/>
      <point x="668" y="108" type="line"/>
      <point x="853" y="1157" type="line" smooth="yes"/>
      <point x="863" y="1211"/>
      <point x="814" y="1224"/>
      <point x="770" y="1200" type="curve" smooth="yes"/>
    </contour>
    <contour>
      <point x="275" y="144" type="line" smooth="yes"/>
      <point x="230" y="144"/>
      <point x="208" y="124"/>
      <point x="199" y="72" type="curve" smooth="yes"/>
      <point x="190" y="20"/>
      <point x="205" y="0"/>
      <point x="250" y="0" type="curve" smooth="yes"/>
      <point x="924" y="0" type="line" smooth="yes"/>
      <point x="969" y="0"/>
      <point x="990" y="20"/>
      <point x="999" y="72" type="curve" smooth="yes"/>
      <point x="1008" y="124"/>
      <point x="994" y="144"/>
      <point x="949" y="144" type="curve" smooth="yes"/>
    </contour>
  </outline>
</glyph>
<glyph name="two" format="1">
  <advance width="1228"/>
  <unicode hex="0032"/>
  <outline>
    <contour>
      <point x="601" y="1209"/>
      <point x="471" y="1174"/>
      <point x="359" y="1107" type="curve" smooth="yes"/>
      <point x="322" y="1085"/>
      <point x="308" y="1054"/>
      <point x="328" y="1008" type="curve" smooth="yes"/>
      <point x="349" y="962"/>
      <point x="383" y="957"/>
      <point x="417" y="976" type="curve" smooth="yes"/>
      <point x="513" y="1030"/>
      <point x="616" y="1061"/>
      <point x="705" y="1061" type="curve" smooth="yes"/>
      <point x="835" y="1061"/>
      <point x="901" y="999"/>
      <point x="901" y="901" type="curve" smooth="yes"/>
      <point x="901" y="783"/>
      <point x="829" y="697"/>
      <point x="679" y="568" type="curve" smooth="yes"/>
      <point x="160" y="122" type="line" smooth="yes"/>
      <point x="148" y="111"/>
      <point x="140" y="94"/>
      <point x="135" y="68" type="curve" smooth="yes"/>
      <point x="127" y="18"/>
      <point x="142" y="0"/>
      <point x="187" y="0" type="curve" smooth="yes"/>
      <point x="904" y="0" type="line" smooth="yes"/>
      <point x="949" y="0"/>
      <point x="970" y="20"/>
      <point x="979" y="72" type="curve" smooth="yes"/>
      <point x="988" y="124"/>
      <point x="974" y="144"/>
      <point x="929" y="144" type="curve" smooth="yes"/>
      <point x="400" y="144" type="line"/>
      <point x="788" y="477" type="line" smooth="yes"/>
      <point x="971" y="634"/>
      <point x="1060" y="744"/>
      <point x="1060" y="911" type="curve" smooth="yes"/>
      <point x="1060" y="1095"/>
      <point x="926" y="1209"/>
      <point x="720" y="1209" type="curve" smooth="yes"/>
    </contour>
  </outline>
</glyph>
<glyph name="three" format="1">
  <advance width="1228"/>
  <unicode hex="0033"/>
  <outline>
    <contour>
      <point x="599" y="1209"/>
      <point x="477" y="1181"/>
      <point x="368" y="1123" type="curve" smooth="yes"/>
      <point x="331" y="1103"/>
      <point x="316" y="1072"/>
      <point x="337" y="1024" type="curve" smooth="yes"/>
      <point x="357" y="978"/>
      <point x="386" y="971"/>
      <point x="419" y="988" type="curve" smooth="yes"/>
      <point x="520" y="1041"/>
      <point x="611" y="1061"/>
      <point x="698" y="1061" type="curve" smooth="yes"/>
      <point x="826" y="1061"/>
      <point x="894" y="1007"/>
      <point x="894" y="917" type="curve" smooth="yes"/>
      <point x="894" y="810"/>
      <point x="830" y="691"/>
      <point x="626" y="691" type="curve" smooth="yes"/>
      <point x="571" y="691" type="line" smooth="yes"/>
      <point x="526" y="691"/>
      <point x="505" y="673"/>
      <point x="496" y="623" type="curve" smooth="yes"/>
      <point x="488" y="573"/>
      <point x="502" y="555"/>
      <point x="547" y="555" type="curve" smooth="yes"/>
      <point x="620" y="555" type="line" smooth="yes"/>
      <point x="756" y="555"/>
      <point x="838" y="498"/>
      <point x="838" y="385" type="curve" smooth="yes"/>
      <point x="838" y="269"/>
      <point x="759" y="126"/>
      <point x="540" y="126" type="curve" smooth="yes"/>
      <point x="434" y="126"/>
      <point x="333" y="166"/>
      <point x="258" y="229" type="curve" smooth="yes"/>
      <point x="223" y="260"/>
      <point x="188" y="233"/>
      <point x="165" y="197" type="curve" smooth="yes"/>
      <point x="141" y="160"/>
      <point x="139" y="129"/>
      <point x="169" y="104" type="curve" smooth="yes"/>
      <point x="259" y="28"/>
      <point x="391" y="-22"/>
      <point x="524" y="-22" type="curve" smooth="yes"/>
      <point x="873" y="-22"/>
      <point x="991" y="213"/>
      <point x="991" y="383" type="curve" smooth="yes"/>
      <point x="991" y="500"/>
      <point x="939" y="583"/>
      <point x="848" y="625" type="curve"/>
      <point x="984" y="685"/>
      <point x="1046" y="794"/>
      <point x="1046" y="927" type="curve" smooth="yes"/>
      <point x="1046" y="1094"/>
      <point x="924" y="1209"/>
      <point x="713" y="1209" type="curve" smooth="yes"/>
    </contour>
  </outline>
</glyph>
<glyph name="question" format="1">
  <advance width="1228"/>
  <unicode hex="003F"/>
  <outline>
    <contour>
      <point x="468" y="230"/>
      <point x="436" y="212"/>
      <point x="428" y="167" type="curve" smooth="yes"/>
      <point x="408" y="53" type="line" smooth="yes"/>
      <point x="400" y="8"/>
      <point x="437" y="-10"/>
      <point x="518" y="-10" type="curve" smooth="yes"/>
      <point x="599" y="-10"/>
      <point x="630" y="8"/>
      <point x="638" y="53" type="curve" smooth="yes"/>
      <point x="658" y="167" type="line" smooth="yes"/>
      <point x="666" y="212"/>
      <point x="630" y="230"/>
      <point x="549" y="230" type="curve" smooth="yes"/>
    </contour>
    <contour>
      <point x="643" y="1269"/>
      <point x="529" y="1241"/>
      <point x="418" y="1183" type="curve" smooth="yes"/>
      <point x="390" y="1168"/>
      <point x="375" y="1142"/>
      <point x="396" y="1091" type="curve" smooth="yes"/>
      <point x="415" y="1045"/>
      <point x="440" y="1041"/>
      <point x="474" y="1056" type="curve" smooth="yes"/>
      <point x="563" y="1095"/>
      <point x="656" y="1121"/>
      <point x="747" y="1121" type="curve" smooth="yes"/>
      <point x="857" y="1121"/>
      <point x="913" y="1069"/>
      <point x="913" y="990" type="curve" smooth="yes"/>
      <point x="913" y="867"/>
      <point x="828" y="809"/>
      <point x="655" y="744" type="curve" smooth="yes"/>
      <point x="581" y="716" type="line" smooth="yes"/>
      <point x="557" y="707"/>
      <point x="545" y="691"/>
      <point x="542" y="665" type="curve" smooth="yes"/>
      <point x="514" y="440" type="line" smooth="yes"/>
      <point x="510" y="409"/>
      <point x="532" y="389"/>
      <point x="574" y="389" type="curve" smooth="yes"/>
      <point x="616" y="389"/>
      <point x="645" y="409"/>
      <point x="652" y="440" type="curve" smooth="yes"/>
      <point x="690" y="606" type="line"/>
      <point x="933" y="696"/>
      <point x="1072" y="803"/>
      <point x="1072" y="997" type="curve" smooth="yes"/>
      <point x="1072" y="1160"/>
      <point x="961" y="1269"/>
      <point x="762" y="1269" type="curve" smooth="yes"/>
    </contour>
  </outline>
</glyph>
<glyph name="A" format="1">
  <advance width="1228"/>
  <unicode hex="0041"/>
  <outline>
    <contour>
      <point x="692" y="1209"/>
      <point x="657" y="1191"/>
      <point x="631" y="1144" type="curve" smooth="yes"/>
      <point x="54" y="91" type="line" smooth="yes"/>
      <point x="30" y="47"/>
      <point x="38" y="23"/>
      <point x="87" y="0" type="curve" smooth="yes"/>
      <point x="135" y="-23"/>
      <point x="168" y="-16"/>
      <point x="192" y="28" type="curve" smooth="yes"/>
      <point x="393" y="398" type="line"/>
      <point x="401" y="414" type="line"/>
      <point x="729" y="1043" type="line"/>
      <point x="733" y="1043" type="line"/>
      <point x="843" y="420" type="line"/>
      <point x="847" y="401" type="line"/>
      <point x="916" y="41" type="line" smooth="yes"/>
      <point x="924" y="-3"/>
      <point x="944" y="-15"/>
      <point x="1004" y="-8" type="curve" smooth="yes"/>
      <point x="1064" y="-1"/>
      <point x="1075" y="19"/>
      <point x="1066" y="63" type="curve" smooth="yes"/>
      <point x="855" y="1144" type="line" smooth="yes"/>
      <point x="846" y="1191"/>
      <point x="818" y="1209"/>
      <point x="755" y="1209" type="curve" smooth="yes"/>
    </contour>
    <contour>
      <point x="368" y="474" type="line"/>
      <point x="318" y="330" type="line"/>
      <point x="882" y="330" type="line"/>
      <point x="869" y="474" type="line"/>
    </contour>
  </outline>
</glyph>
<glyph name="S" format="1">
  <advance width="1228"/>
  <unicode hex="0053"/>
  <outline>
    <contour>
      <point x="385" y="1209"/>
      <point x="248" y="1004"/>
      <point x="248" y="833" type="curve" smooth="yes"/>
      <point x="248" y="722"/>
      <point x="302" y="651"/>
      <point x="400" y="609" type="curve" smooth="yes"/>
      <point x="526" y="555"/>
      <point x="698" y="544"/>
      <point x="805" y="495" type="curve" smooth="yes"/>
      <point x="864" y="468"/>
      <point x="897" y="425"/>
      <point x="897" y="361" type="curve" smooth="yes"/>
      <point x="897" y="234"/>
      <point x="796" y="126"/>
      <point x="584" y="126" type="curve" smooth="yes"/>
      <point x="453" y="126"/>
      <point x="323" y="166"/>
      <point x="230" y="232" type="curve" smooth="yes"/>
      <point x="206" y="249"/>
      <point x="175" y="247"/>
      <point x="145" y="197" type="curve" smooth="yes"/>
      <point x="116" y="148"/>
      <point x="124" y="117"/>
      <point x="157" y="94" type="curve" smooth="yes"/>
      <point x="262" y="21"/>
      <point x="415" y="-22"/>
      <point x="568" y="-22" type="curve" smooth="yes"/>
      <point x="936" y="-22"/>
      <point x="1057" y="195"/>
      <point x="1057" y="380" type="curve" smooth="yes"/>
      <point x="1057" y="497"/>
      <point x="998" y="582"/>
      <point x="906" y="624" type="curve" smooth="yes"/>
      <point x="778" y="683"/>
      <point x="617" y="694"/>
      <point x="507" y="732" type="curve" smooth="yes"/>
      <point x="441" y="755"/>
      <point x="408" y="786"/>
      <point x="408" y="847" type="curve" smooth="yes"/>
      <point x="408" y="952"/>
      <point x="499" y="1061"/>
      <point x="685" y="1061" type="curve" smooth="yes"/>
      <point x="816" y="1061"/>
      <point x="943" y="1023"/>
      <point x="1033" y="969" type="curve" smooth="yes"/>
      <point x="1061" y="952"/>
      <point x="1091" y="956"/>
      <point x="1119" y="1008" type="curve" smooth="yes"/>
      <point x="1147" y="1060"/>
      <point x="1138" y="1088"/>
      <point x="1103" y="1109" type="curve" smooth="yes"/>
      <point x="992" y="1174"/>
      <point x="857" y="1209"/>
      <point x="704" y="1209" type="curve" smooth="yes"/>
    </contour>
  </outline>
</glyph>
<glyph name="W" format="1">
  <advance width="1228"/>
  <unicode hex="0057"/>
  <outline>
    <contour>
      <point x="211" y="1196"/>
      <point x="198" y="1180"/>
      <point x="196" y="1136" type="curve" smooth="yes"/>
      <point x="154" y="43" type="line" smooth="yes"/>
      <point x="152" y="-6"/>
      <point x="181" y="-22"/>
      <point x="232" y="-22" type="curve" smooth="yes"/>
      <point x="283" y="-22"/>
      <point x="316" y="-2"/>
      <point x="340" y="43" type="curve" smooth="yes"/>
      <point x="650" y="629" type="line"/>
      <point x="754" y="43" type="line" smooth="yes"/>
      <point x="762" y="-2"/>
      <point x="795" y="-22"/>
      <point x="846" y="-22" type="curve" smooth="yes"/>
      <point x="897" y="-22"/>
      <point x="925" y="-6"/>
      <point x="940" y="43" type="curve" smooth="yes"/>
      <point x="1275" y="1110" type="line" smooth="yes"/>
      <point x="1291" y="1161"/>
      <point x="1285" y="1185"/>
      <point x="1226" y="1195" type="curve" smooth="yes"/>
      <point x="1169" y="1205"/>
      <point x="1145" y="1191"/>
      <point x="1130" y="1141" type="curve" smooth="yes"/>
      <point x="862" y="258" type="line"/>
      <point x="758" y="845" type="line" smooth="yes"/>
      <point x="754" y="871"/>
      <point x="733" y="885"/>
      <point x="689" y="885" type="curve" smooth="yes"/>
      <point x="645" y="885"/>
      <point x="624" y="871"/>
      <point x="610" y="845" type="curve" smooth="yes"/>
      <point x="300" y="258" type="line"/>
      <point x="343" y="1133" type="line" smooth="yes"/>
      <point x="345" y="1180"/>
      <point x="330" y="1196"/>
      <point x="270" y="1196" type="curve" smooth="yes"/>
    </contour>
  </outline>
</glyph>
<glyph name="bracketleft" format="1">
  <advance width="1228"/>
  <unicode hex="005B"/>
  <outline>
    <contour>
      <point x="554" y="1312" type="line" smooth="yes"/>
      <point x="509" y="1312"/>
      <point x="488" y="1294"/>
      <point x="479" y="1244" type="curve" smooth="yes"/>
      <point x="202" y="-325" type="line" smooth="yes"/>
      <point x="193" y="-375"/>
      <point x="208" y="-393"/>
      <point x="253" y="-393" type="curve" smooth="yes"/>
      <point x="667" y="-393" type="line" smooth="yes"/>
      <point x="712" y="-393"/>
      <point x="734" y="-373"/>
      <point x="743" y="-321" type="curve" smooth="yes"/>
      <point x="752" y="-269"/>
      <point x="738" y="-249"/>
      <point x="693" y="-249" type="curve" smooth="yes"/>
      <point x="366" y="-249" type="line"/>
      <point x="615" y="1168" type="line"/>
      <point x="942" y="1168" type="line" smooth="yes"/>
      <point x="987" y="1168"/>
      <point x="1009" y="1188"/>
      <point x="1018" y="1240" type="curve" smooth="yes"/>
      <point x="1027" y="1292"/>
      <point x="1013" y="1312"/>
      <point x="968" y="1312" type="curve" smooth="yes"/>
    </contour>
  </outline>
</glyph>
<glyph name="f" format="1">
  <advance width="1228"/>
  <unicode hex="0066"/>
  <outline>
    <contour>
      <point x="769" y="1317"/>
      <point x="628" y="1186"/>
      <point x="589" y="967" type="curve" smooth="yes"/>
      <point x="405" y="-78" type="line" smooth="yes"/>
      <point x="382" y="-206"/>
      <point x="318" y="-264"/>
      <point x="209" y="-264" type="curve" smooth="yes"/>
      <point x="137" y="-264"/>
      <point x="67" y="-243"/>
      <point x="3" y="-195" type="curve" smooth="yes"/>
      <point x="-24" y="-175"/>
      <point x="-56" y="-180"/>
      <point x="-85" y="-226" type="curve" smooth="yes"/>
      <point x="-115" y="-274"/>
      <point x="-105" y="-303"/>
      <point x="-76" y="-324" type="curve" smooth="yes"/>
      <point x="5" y="-382"/>
      <point x="99" y="-410"/>
      <point x="196" y="-410" type="curve" smooth="yes"/>
      <point x="396" y="-410"/>
      <point x="517" y="-293"/>
      <point x="553" y="-91" type="curve" smooth="yes"/>
      <point x="737" y="954" type="line" smooth="yes"/>
      <point x="761" y="1091"/>
      <point x="836" y="1171"/>
      <point x="977" y="1171" type="curve" smooth="yes"/>
      <point x="1056" y="1171"/>
      <point x="1133" y="1153"/>
      <point x="1205" y="1124" type="curve" smooth="yes"/>
      <point x="1237" y="1111"/>
      <point x="1268" y="1119"/>
      <point x="1287" y="1174" type="curve" smooth="yes"/>
      <point x="1305" y="1225"/>
      <point x="1283" y="1252"/>
      <point x="1250" y="1266" type="curve" smooth="yes"/>
      <point x="1175" y="1297"/>
      <point x="1087" y="1317"/>
      <point x="993" y="1317" type="curve" smooth="yes"/>
    </contour>
    <contour>
      <point x="369" y="844" type="line" smooth="yes"/>
      <point x="324" y="844"/>
      <point x="303" y="824"/>
      <point x="294" y="772" type="curve" smooth="yes"/>
      <point x="284" y="720"/>
      <point x="299" y="700"/>
      <point x="344" y="700" type="curve" smooth="yes"/>
      <point x="1038" y="700" type="line" smooth="yes"/>
      <point x="1083" y="700"/>
      <point x="1104" y="720"/>
      <point x="1114" y="772" type="curve" smooth="yes"/>
      <point x="1123" y="824"/>
      <point x="1108" y="844"/>
      <point x="1063" y="844" type="curve" smooth="yes"/>
    </contour>
  </outline>
</glyph>
<glyph name="h" format="1">
  <advance width="1228"/>
  <unicode hex="0068"/>
  <outline>
    <contour>
      <point x="438" y="1322" type="line" smooth="yes"/>
      <point x="385" y="1322"/>
      <point x="361" y="1303"/>
      <point x="353" y="1257" type="curve" smooth="yes"/>
      <point x="141" y="55" type="line" smooth="yes"/>
      <point x="133" y="9"/>
      <point x="148" y="-10"/>
      <point x="204" y="-10" type="curve" smooth="yes"/>
      <point x="206" y="-10" type="line" smooth="yes"/>
      <point x="259" y="-10"/>
      <point x="283" y="9"/>
      <point x="291" y="55" type="curve" smooth="yes"/>
      <point x="351" y="392" type="line" smooth="yes"/>
      <point x="391" y="620"/>
      <point x="611" y="798"/>
      <point x="782" y="798" type="curve" smooth="yes"/>
      <point x="887" y="798"/>
      <point x="935" y="744"/>
      <point x="935" y="659" type="curve" smooth="yes"/>
      <point x="935" y="642"/>
      <point x="933" y="624"/>
      <point x="930" y="605" type="curve" smooth="yes"/>
      <point x="833" y="55" type="line" smooth="yes"/>
      <point x="825" y="9"/>
      <point x="840" y="-10"/>
      <point x="896" y="-10" type="curve" smooth="yes"/>
      <point x="898" y="-10" type="line" smooth="yes"/>
      <point x="951" y="-10"/>
      <point x="975" y="9"/>
      <point x="983" y="55" type="curve" smooth="yes"/>
      <point x="1081" y="610" type="line" smooth="yes"/>
      <point x="1086" y="637"/>
      <point x="1088" y="662"/>
      <point x="1088" y="686" type="curve" smooth="yes"/>
      <point x="1088" y="844"/>
      <point x="985" y="946"/>
      <point x="813" y="946" type="curve" smooth="yes"/>
      <point x="672" y="946"/>
      <point x="519" y="857"/>
      <point x="410" y="731" type="curve"/>
      <point x="503" y="1257" type="line" smooth="yes"/>
      <point x="511" y="1303"/>
      <point x="496" y="1322"/>
      <point x="440" y="1322" type="curve" smooth="yes"/>
    </contour>
  </outline>
</glyph>
<glyph name="n" format="1">
  <advance width="1228"/>
  <unicode hex="006E"/>
  <outline>
    <contour>
      <point x="667" y="946"/>
      <point x="507" y="850"/>
      <point x="398" y="716" type="curve"/>
      <point x="425" y="869" type="line" smooth="yes"/>
      <point x="433" y="915"/>
      <point x="418" y="934"/>
      <point x="365" y="934" type="curve" smooth="yes"/>
      <point x="363" y="934" type="line" smooth="yes"/>
      <point x="310" y="934"/>
      <point x="293" y="915"/>
      <point x="285" y="869" type="curve" smooth="yes"/>
      <point x="141" y="55" type="line" smooth="yes"/>
      <point x="133" y="9"/>
      <point x="148" y="-10"/>
      <point x="204" y="-10" type="curve" smooth="yes"/>
      <point x="206" y="-10" type="line" smooth="yes"/>
      <point x="259" y="-10"/>
      <point x="283" y="9"/>
      <point x="291" y="55" type="curve" smooth="yes"/>
      <point x="351" y="392" type="line" smooth="yes"/>
      <point x="391" y="620"/>
      <point x="611" y="798"/>
      <point x="782" y="798" type="curve" smooth="yes"/>
      <point x="887" y="798"/>
      <point x="935" y="744"/>
      <point x="935" y="659" type="curve" smooth="yes"/>
      <point x="935" y="642"/>
      <point x="933" y="624"/>
      <point x="930" y="605" type="curve" smooth="yes"/>
      <point x="833" y="55" type="line" smooth="yes"/>
      <point x="825" y="9"/>
      <point x="840" y="-10"/>
      <point x="896" y="-10" type="curve" smooth="yes"/>
      <point x="898" y="-10" type="line" smooth="yes"/>
      <point x="951" y="-10"/>
      <point x="975" y="9"/>
      <point x="983" y="55" type="curve" smooth="yes"/>
      <point x="1081" y="610" type="line" smooth="yes"/>
      <point x="1086" y="637"/>
      <point x="1088" y="662"/>
      <point x="1088" y="686" type="curve" smooth="yes"/>
      <point x="1088" y="844"/>
      <point x="985" y="946"/>
      <point x="813" y="946" type="curve" smooth="yes"/>
    </contour>
  </outline>
</glyph>
<glyph name="x" format="1">
  <advance width="1228"/>
  <unicode hex="0078"/>
  <outline>
    <contour>
      <point x="1056" y="947"/>
      <point x="1021" y="945"/>
      <point x="984" y="909" type="curve" smooth="yes"/>
      <point x="613" y="546" type="line"/>
      <point x="577" y="526" type="line"/>
      <point x="129" y="89" type="line" smooth="yes"/>
      <point x="92" y="52"/>
      <point x="103" y="21"/>
      <point x="146" y="0" type="curve" smooth="yes"/>
      <point x="192" y="-23"/>
      <point x="228" y="-21"/>
      <point x="265" y="15" type="curve" smooth="yes"/>
      <point x="672" y="417" type="line"/>
      <point x="709" y="436" type="line"/>
      <point x="1120" y="835" type="line" smooth="yes"/>
      <point x="1158" y="871"/>
      <point x="1146" y="903"/>
      <point x="1103" y="924" type="curve" smooth="yes"/>
    </contour>
    <contour>
      <point x="262" y="903"/>
      <point x="248" y="872"/>
      <point x="274" y="835" type="curve" smooth="yes"/>
      <point x="560" y="431" type="line"/>
      <point x="585" y="416" type="line"/>
      <point x="863" y="15" type="line" smooth="yes"/>
      <point x="888" y="-20"/>
      <point x="908" y="-23"/>
      <point x="964" y="0" type="curve" smooth="yes"/>
      <point x="1013" y="21"/>
      <point x="1026" y="53"/>
      <point x="1001" y="89" type="curve" smooth="yes"/>
      <point x="695" y="526" type="line"/>
      <point x="670" y="542" type="line"/>
      <point x="412" y="909" type="line" smooth="yes"/>
      <point x="387" y="945"/>
      <point x="366" y="947"/>
      <point x="311" y="924" type="curve" smooth="yes"/>
    </contour>
  </outline>
</glyph>
<glyph name="yen" format="1">
  <advance width="1228"/>
  <unicode hex="00A5"/>
  <outline>
    <contour>
      <point x="1139" y="1213"/>
      <point x="1106" y="1205"/>
      <point x="1079" y="1172" type="curve" smooth="yes"/>
      <point x="616" y="607" type="line"/>
      <point x="664" y="601" type="line"/>
      <point x="400" y="1165" type="line" smooth="yes"/>
      <point x="385" y="1198"/>
      <point x="364" y="1209"/>
      <point x="310" y="1187" type="curve" smooth="yes"/>
      <point x="255" y="1165"/>
      <point x="248" y="1141"/>
      <point x="267" y="1101" type="curve" smooth="yes"/>
      <point x="572" y="457" type="line"/>
      <point x="676" y="457" type="line"/>
      <point x="1202" y="1090" type="line" smooth="yes"/>
      <point x="1235" y="1130"/>
      <point x="1230" y="1159"/>
      <point x="1183" y="1187" type="curve" smooth="yes"/>
    </contour>
    <contour>
      <point x="555" y="515" type="line"/>
      <point x="474" y="55" type="line" smooth="yes"/>
      <point x="466" y="9"/>
      <point x="481" y="-10"/>
      <point x="537" y="-10" type="curve" smooth="yes"/>
      <point x="539" y="-10" type="line" smooth="yes"/>
      <point x="592" y="-10"/>
      <point x="616" y="9"/>
      <point x="624" y="55" type="curve" smooth="yes"/>
      <point x="705" y="515" type="line"/>
    </contour>
    <contour>
      <point x="239" y="434" type="line" smooth="yes"/>
      <point x="194" y="434"/>
      <point x="172" y="414"/>
      <point x="163" y="362" type="curve" smooth="yes"/>
      <point x="154" y="310"/>
      <point x="169" y="290"/>
      <point x="214" y="290" type="curve" smooth="yes"/>
      <point x="976" y="290" type="line"/>
      <point x="1021" y="290"/>
      <point x="1042" y="310"/>
      <point x="1051" y="362" type="curve" smooth="yes"/>
      <point x="1060" y="414"/>
      <point x="1046" y="434"/>
      <point x="1001" y="434" type="curve" smooth="yes"/>
    </contour>
    <contour>
      <point x="274" y="744" type="line" smooth="yes"/>
      <point x="229" y="744"/>
      <point x="207" y="724"/>
      <point x="198" y="672" type="curve" smooth="yes"/>
      <point x="189" y="620"/>
      <point x="203" y="600"/>
      <point x="248" y="600" type="curve" smooth="yes"/>
      <point x="539" y="600" type="line"/>
      <point x="471" y="744" type="line"/>
    </contour>
    <contour>
      <point x="868" y="744" type="line"/>
      <point x="748" y="600" type="line"/>
      <point x="1050" y="600" type="line" smooth="yes"/>
      <point x="1095" y="600"/>
      <point x="1117" y="620"/>
      <point x="1126" y="672" type="curve" smooth="yes"/>
      <point x="1135" y="724"/>
      <point x="1121" y="744"/>
      <point x="1076" y="744" type="curve" smooth="yes"/>
    </contour>
  </outline>
</glyph>
<glyph name="onehalf" format="1">
  <advance width="1228"/>
  <unicode hex="00BD"/>
  <outline>
    <contour>
      <point x="876" y="494"/>
      <point x="780" y="473"/>
      <point x="702" y="432" type="curve" smooth="yes"/>
      <point x="678" y="419"/>
      <point x="679" y="398"/>
      <point x="690" y="372" type="curve" smooth="yes"/>
      <point x="701" y="344"/>
      <point x="716" y="329"/>
      <point x="743" y="341" type="curve" smooth="yes"/>
      <point x="801" y="367"/>
      <point x="874" y="386"/>
      <point x="934" y="386" type="curve" smooth="yes"/>
      <point x="1009" y="386"/>
      <point x="1046" y="351"/>
      <point x="1046" y="298" type="curve" smooth="yes"/>
      <point x="1046" y="234"/>
      <point x="1007" y="191"/>
      <point x="926" y="132" type="curve" smooth="yes"/>
      <point x="608" y="-102" type="line" smooth="yes"/>
      <point x="590" y="-115"/>
      <point x="576" y="-132"/>
      <point x="572" y="-156" type="curve" smooth="yes"/>
      <point x="565" y="-194"/>
      <point x="575" y="-216"/>
      <point x="601" y="-216" type="curve" smooth="yes"/>
      <point x="1066" y="-216" type="line" smooth="yes"/>
      <point x="1092" y="-216"/>
      <point x="1106" y="-201"/>
      <point x="1111" y="-164" type="curve" smooth="yes"/>
      <point x="1116" y="-126"/>
      <point x="1104" y="-112"/>
      <point x="1077" y="-112" type="curve" smooth="yes"/>
      <point x="763" y="-112" type="line"/>
      <point x="992" y="53" type="line" smooth="yes"/>
      <point x="1112" y="140"/>
      <point x="1166" y="208"/>
      <point x="1166" y="308" type="curve" smooth="yes"/>
      <point x="1166" y="423"/>
      <point x="1086" y="494"/>
      <point x="954" y="494" type="curve" smooth="yes"/>
    </contour>
    <contour>
      <point x="104" y="329" type="line" smooth="yes"/>
      <point x="83" y="317"/>
      <point x="78" y="290"/>
      <point x="93" y="264" type="curve" smooth="yes"/>
      <point x="107" y="238"/>
      <point x="130" y="230"/>
      <point x="149" y="240" type="curve" smooth="yes"/>
      <point x="1166" y="801" type="line" smooth="yes"/>
      <point x="1187" y="813"/>
      <point x="1191" y="840"/>
      <point x="1177" y="866" type="curve" smooth="yes"/>
      <point x="1163" y="892"/>
      <point x="1140" y="900"/>
      <point x="1121" y="890" type="curve" smooth="yes"/>
    </contour>
    <contour>
      <point x="460" y="1394"/>
      <point x="453" y="1393"/>
      <point x="445" y="1390" type="curve" smooth="yes"/>
      <point x="195" y="1314" type="line" smooth="yes"/>
      <point x="157" y="1303"/>
      <point x="152" y="1285"/>
      <point x="160" y="1249" type="curve" smooth="yes"/>
      <point x="168" y="1213"/>
      <point x="182" y="1208"/>
      <point x="212" y="1217" type="curve" smooth="yes"/>
      <point x="365" y="1264" type="line"/>
      <point x="281" y="788" type="line"/>
      <point x="110" y="788" type="line" smooth="yes"/>
      <point x="80" y="788"/>
      <point x="65" y="770"/>
      <point x="60" y="736" type="curve" smooth="yes"/>
      <point x="55" y="705"/>
      <point x="60" y="684"/>
      <point x="92" y="684" type="curve" smooth="yes"/>
      <point x="538" y="684" type="line" smooth="yes"/>
      <point x="568" y="684"/>
      <point x="583" y="702"/>
      <point x="588" y="736" type="curve" smooth="yes"/>
      <point x="593" y="767"/>
      <point x="588" y="788"/>
      <point x="556" y="788" type="curve" smooth="yes"/>
      <point x="394" y="788" type="line"/>
      <point x="495" y="1359" type="line" smooth="yes"/>
      <point x="498" y="1380"/>
      <point x="487" y="1394"/>
      <point x="466" y="1394" type="curve" smooth="yes"/>
    </contour>
  </outline>
</glyph>
<glyph name="thorn" format="1">
  <advance width="1228"/>
  <unicode hex="00FE"/>
  <outline>
    <contour>
      <point x="428" y="1322" type="line" smooth="yes"/>
      <point x="375" y="1322"/>
      <point x="351" y="1303"/>
      <point x="343" y="1257" type="curve" smooth="yes"/>
      <point x="63" y="-333" type="line" smooth="yes"/>
      <point x="55" y="-379"/>
      <point x="70" y="-398"/>
      <point x="126" y="-398" type="curve" smooth="yes"/>
      <point x="128" y="-398" type="line" smooth="yes"/>
      <point x="181" y="-398"/>
      <point x="205" y="-379"/>
      <point x="213" y="-333" type="curve" smooth="yes"/>
      <point x="307" y="200" type="line"/>
      <point x="292" y="156" type="line"/>
      <point x="354" y="44"/>
      <point x="458" y="-22"/>
      <point x="595" y="-22" type="curve" smooth="yes"/>
      <point x="948" y="-22"/>
      <point x="1107" y="299"/>
      <point x="1107" y="558" type="curve" smooth="yes"/>
      <point x="1107" y="797"/>
      <point x="960" y="946"/>
      <point x="745" y="946" type="curve" smooth="yes"/>
      <point x="622" y="946"/>
      <point x="509" y="896"/>
      <point x="412" y="801" type="curve"/>
      <point x="493" y="1257" type="line" smooth="yes"/>
      <point x="501" y="1303"/>
      <point x="486" y="1322"/>
      <point x="430" y="1322" type="curve" smooth="yes"/>
    </contour>
    <contour>
      <point x="872" y="798"/>
      <point x="954" y="698"/>
      <point x="954" y="549" type="curve" smooth="yes"/>
      <point x="954" y="343"/>
      <point x="826" y="126"/>
      <point x="601" y="126" type="curve" smooth="yes"/>
      <point x="447" y="126"/>
      <point x="346" y="219"/>
      <point x="346" y="383" type="curve" smooth="yes"/>
      <point x="346" y="589"/>
      <point x="482" y="798"/>
      <point x="719" y="798" type="curve" smooth="yes"/>
    </contour>
  </outline>
</glyph>
<glyph name="dcroat" format="1">
  <advance width="1228"/>
  <unicode hex="0111"/>
  <outline>
    <contour>
      <point x="1103" y="1322" type="line" smooth="yes"/>
      <point x="1047" y="1322"/>
      <point x="1026" y="1303"/>
      <point x="1018" y="1257" type="curve" smooth="yes"/>
      <point x="915" y="674" type="line"/>
      <point x="948" y="698" type="line"/>
      <point x="889" y="811"/>
      <point x="785" y="886"/>
      <point x="641" y="886" type="curve" smooth="yes"/>
      <point x="352" y="886"/>
      <point x="159" y="641"/>
      <point x="159" y="347" type="curve" smooth="yes"/>
      <point x="159" y="114"/>
      <point x="303" y="-22"/>
      <point x="511" y="-22" type="curve" smooth="yes"/>
      <point x="652" y="-22"/>
      <point x="772" y="54"/>
      <point x="865" y="168" type="curve"/>
      <point x="842" y="205" type="line"/>
      <point x="816" y="55" type="line" smooth="yes"/>
      <point x="808" y="9"/>
      <point x="820" y="-10"/>
      <point x="873" y="-10" type="curve" smooth="yes"/>
      <point x="875" y="-10" type="line" smooth="yes"/>
      <point x="928" y="-10"/>
      <point x="948" y="9"/>
      <point x="956" y="55" type="curve" smooth="yes"/>
      <point x="1168" y="1257" type="line" smooth="yes"/>
      <point x="1176" y="1303"/>
      <point x="1161" y="1322"/>
      <point x="1105" y="1322" type="curve" smooth="yes"/>
    </contour>
    <contour>
      <point x="783" y="738"/>
      <point x="879" y="653"/>
      <point x="879" y="503" type="curve" smooth="yes"/>
      <point x="879" y="326"/>
      <point x="761" y="126"/>
      <point x="531" y="126" type="curve" smooth="yes"/>
      <point x="387" y="126"/>
      <point x="312" y="219"/>
      <point x="312" y="356" type="curve" smooth="yes"/>
      <point x="312" y="532"/>
      <point x="422" y="738"/>
      <point x="639" y="738" type="curve" smooth="yes"/>
    </contour>
    <contour>
      <point x="746" y="1150" type="line" smooth="yes"/>
      <point x="701" y="1150"/>
      <point x="679" y="1130"/>
      <point x="670" y="1078" type="curve" smooth="yes"/>
      <point x="661" y="1026"/>
      <point x="675" y="1006"/>
      <point x="720" y="1006" type="curve" smooth="yes"/>
      <point x="1262" y="1006" type="line" smooth="yes"/>
      <point x="1307" y="1006"/>
      <point x="1329" y="1026"/>
      <point x="1338" y="1078" type="curve" smooth="yes"/>
      <point x="1347" y="1130"/>
      <point x="1333" y="1150"/>
      <point x="1288" y="1150" type="curve" smooth="yes"/>
    </contour>
  </outline>
</glyph>
<glyph name="hbar" format="1">
  <advance width="1228"/>
  <unicode hex="0127"/>
  <outline>
    <contour>
      <point x="458" y="1322" type="line" smooth="yes"/>
      <point x="405" y="1322"/>
      <point x="381" y="1303"/>
      <point x="373" y="1257" type="curve" smooth="yes"/>
      <point x="161" y="55" type="line" smooth="yes"/>
      <point x="153" y="9"/>
      <point x="168" y="-10"/>
      <point x="224" y="-10" type="curve" smooth="yes"/>
      <point x="226" y="-10" type="line" smooth="yes"/>
      <point x="279" y="-10"/>
      <point x="303" y="9"/>
      <point x="311" y="55" type="curve" smooth="yes"/>
      <point x="363" y="352" type="line" smooth="yes"/>
      <point x="401" y="568"/>
      <point x="605" y="738"/>
      <point x="761" y="738" type="curve" smooth="yes"/>
      <point x="862" y="738"/>
      <point x="904" y="684"/>
      <point x="904" y="600" type="curve" smooth="yes"/>
      <point x="904" y="581"/>
      <point x="902" y="562"/>
      <point x="899" y="545" type="curve" smooth="yes"/>
      <point x="813" y="55" type="line" smooth="yes"/>
      <point x="805" y="9"/>
      <point x="820" y="-10"/>
      <point x="876" y="-10" type="curve" smooth="yes"/>
      <point x="878" y="-10" type="line" smooth="yes"/>
      <point x="931" y="-10"/>
      <point x="955" y="9"/>
      <point x="963" y="55" type="curve" smooth="yes"/>
      <point x="1050" y="549" type="line" smooth="yes"/>
      <point x="1055" y="577"/>
      <point x="1057" y="603"/>
      <point x="1057" y="627" type="curve" smooth="yes"/>
      <point x="1057" y="784"/>
      <point x="963" y="886"/>
      <point x="792" y="886" type="curve" smooth="yes"/>
      <point x="650" y="886"/>
      <point x="491" y="787"/>
      <point x="377" y="639" type="curve"/>
      <point x="409" y="613" type="line"/>
      <point x="523" y="1257" type="line" smooth="yes"/>
      <point x="531" y="1303"/>
      <point x="516" y="1322"/>
      <point x="460" y="1322" type="curve" smooth="yes"/>
    </contour>
    <contour>
      <point x="215" y="1150" type="line" smooth="yes"/>
      <point x="170" y="1150"/>
      <point x="148" y="1130"/>
      <point x="139" y="1078" type="curve" smooth="yes"/>
      <point x="130" y="1026"/>
      <point x="144" y="1006"/>
      <point x="189" y="1006" type="curve" smooth="yes"/>
      <point x="731" y="1006" type="line" smooth="yes"/>
      <point x="776" y="1006"/>
      <point x="798" y="1026"/>
      <point x="807" y="1078" type="curve" smooth="yes"/>
      <point x="816" y="1130"/>
      <point x="802" y="1150"/>
      <point x="757" y="1150" type="curve" smooth="yes"/>
    </contour>
  </outline>
</glyph>
<glyph name="OE" format="1">
  <advance width="1228"/>
  <unicode hex="0152"/>
  <outline>
    <contour>
      <point x="723" y="1187" type="line"/>
      <point x="704" y="1066" type="line"/>
      <point x="536" y="120" type="line"/>
      <point x="534" y="0" type="line"/>
      <point x="1008" y="0" type="line" smooth="yes"/>
      <point x="1053" y="0"/>
      <point x="1074" y="20"/>
      <point x="1083" y="72" type="curve" smooth="yes"/>
      <point x="1092" y="124"/>
      <point x="1078" y="144"/>
      <point x="1033" y="144" type="curve" smooth="yes"/>
      <point x="691" y="144" type="line"/>
      <point x="761" y="540" type="line"/>
      <point x="1008" y="540" type="line" smooth="yes"/>
      <point x="1053" y="540"/>
      <point x="1074" y="560"/>
      <point x="1083" y="612" type="curve" smooth="yes"/>
      <point x="1093" y="664"/>
      <point x="1078" y="684"/>
      <point x="1033" y="684" type="curve" smooth="yes"/>
      <point x="786" y="684" type="line"/>
      <point x="849" y="1043" type="line"/>
      <point x="1171" y="1043" type="line" smooth="yes"/>
      <point x="1216" y="1043"/>
      <point x="1238" y="1063"/>
      <point x="1247" y="1115" type="curve" smooth="yes"/>
      <point x="1256" y="1167"/>
      <point x="1242" y="1187"/>
      <point x="1197" y="1187" type="curve" smooth="yes"/>
    </contour>
    <contour>
      <point x="494" y="1187"/>
      <point x="337" y="1074"/>
      <point x="239" y="921" type="curve" smooth="yes"/>
      <point x="147" y="779"/>
      <point x="107" y="603"/>
      <point x="107" y="454" type="curve" smooth="yes"/>
      <point x="107" y="171"/>
      <point x="268" y="0"/>
      <point x="534" y="0" type="curve"/>
      <point x="585" y="70" type="line"/>
      <point x="556" y="136" type="line"/>
      <point x="373" y="136"/>
      <point x="260" y="248"/>
      <point x="260" y="461" type="curve" smooth="yes"/>
      <point x="260" y="594"/>
      <point x="296" y="745"/>
      <point x="373" y="861" type="curve" smooth="yes"/>
      <point x="448" y="973"/>
      <point x="562" y="1052"/>
      <point x="719" y="1050" type="curve"/>
      <point x="770" y="1125" type="line"/>
      <point x="723" y="1187" type="line"/>
    </contour>
  </outline>
</glyph>
<glyph name="uogonek" format="1">
  <advance width="1228"/>
  <unicode hex="0173"/>
  <outline>
    <contour>
      <point x="1044" y="934" type="line" smooth="yes"/>
      <point x="991" y="934"/>
      <point x="967" y="915"/>
      <point x="959" y="869" type="curve" smooth="yes"/>
      <point x="899" y="532" type="line" smooth="yes"/>
      <point x="859" y="304"/>
      <point x="639" y="126"/>
      <point x="468" y="126" type="curve" smooth="yes"/>
      <point x="363" y="126"/>
      <point x="315" y="180"/>
      <point x="315" y="265" type="curve" smooth="yes"/>
      <point x="315" y="282"/>
      <point x="317" y="300"/>
      <point x="320" y="319" type="curve" smooth="yes"/>
      <point x="417" y="869" type="line" smooth="yes"/>
      <point x="425" y="915"/>
      <point x="410" y="934"/>
      <point x="354" y="934" type="curve" smooth="yes"/>
      <point x="352" y="934" type="line" smooth="yes"/>
      <point x="299" y="934"/>
      <point x="275" y="915"/>
      <point x="267" y="869" type="curve" smooth="yes"/>
      <point x="169" y="314" type="line" smooth="yes"/>
      <point x="164" y="287"/>
      <point x="162" y="262"/>
      <point x="162" y="238" type="curve" smooth="yes"/>
      <point x="162" y="80"/>
      <point x="265" y="-22"/>
      <point x="437" y="-22" type="curve" smooth="yes"/>
      <point x="583" y="-22"/>
      <point x="743" y="74"/>
      <point x="852" y="208" type="curve"/>
      <point x="822" y="38" type="line"/>
      <point x="662" y="-75"/>
      <point x="568" y="-185"/>
      <point x="568" y="-310" type="curve" smooth="yes"/>
      <point x="568" y="-406"/>
      <point x="626" y="-472"/>
      <point x="733" y="-472" type="curve" smooth="yes"/>
      <point x="797" y="-472"/>
      <point x="862" y="-460"/>
      <point x="911" y="-443" type="curve" smooth="yes"/>
      <point x="942" y="-432"/>
      <point x="952" y="-411"/>
      <point x="947" y="-374" type="curve" smooth="yes"/>
      <point x="942" y="-337"/>
      <point x="927" y="-322"/>
      <point x="900" y="-326" type="curve" smooth="yes"/>
      <point x="864" y="-332"/>
      <point x="828" y="-336"/>
      <point x="789" y="-336" type="curve" smooth="yes"/>
      <point x="749" y="-336"/>
      <point x="724" y="-316"/>
      <point x="724" y="-277" type="curve" smooth="yes"/>
      <point x="724" y="-206"/>
      <point x="790" y="-117"/>
      <point x="937" y="1" type="curve"/>
      <point x="952" y="13"/>
      <point x="960" y="28"/>
      <point x="965" y="55" type="curve" smooth="yes"/>
      <point x="1109" y="869" type="line" smooth="yes"/>
      <point x="1117" y="915"/>
      <point x="1102" y="934"/>
      <point x="1046" y="934" type="curve" smooth="yes"/>
    </contour>
  </outline>
</glyph>
<glyph name="underscore_f" format="1">
  <advance width="2456"/>
  <outline>
    <contour>
      <point x="1996" y="1317"/>
      <point x="1855" y="1186"/>
      <point x="1816" y="967" type="curve" smooth="yes"/>
      <point x="1587" y="-333" type="line" smooth="yes"/>
      <point x="1579" y="-379"/>
      <point x="1594" y="-398"/>
      <point x="1650" y="-398" type="curve" smooth="yes"/>
      <point x="1652" y="-398" type="line" smooth="yes"/>
      <point x="1705" y="-398"/>
      <point x="1729" y="-379"/>
      <point x="1737" y="-333" type="curve" smooth="yes"/>
      <point x="1964" y="954" type="line" smooth="yes"/>
      <point x="1988" y="1091"/>
      <point x="2063" y="1171"/>
      <point x="2204" y="1171" type="curve" smooth="yes"/>
      <point x="2283" y="1171"/>
      <point x="2360" y="1153"/>
      <point x="2432" y="1124" type="curve" smooth="yes"/>
      <point x="2464" y="1111"/>
      <point x="2495" y="1119"/>
      <point x="2514" y="1174" type="curve" smooth="yes"/>
      <point x="2532" y="1225"/>
      <point x="2510" y="1252"/>
      <point x="2477" y="1266" type="curve" smooth="yes"/>
      <point x="2402" y="1297"/>
      <point x="2314" y="1317"/>
      <point x="2220" y="1317" type="curve" smooth="yes"/>
    </contour>
    <contour>
      <point x="-18" y="-249" type="line" smooth="yes"/>
      <point x="-33" y="-249"/>
      <point x="-44" y="-261"/>
      <point x="-54" y="-321" type="curve" smooth="yes"/>
      <point x="-65" y="-381"/>
      <point x="-59" y="-393"/>
      <point x="-44" y="-393" type="curve" smooth="yes"/>
      <point x="1193" y="-393" type="line" smooth="yes"/>
      <point x="1208" y="-393"/>
      <point x="1218" y="-381"/>
      <point x="1229" y="-321" type="curve" smooth="yes"/>
      <point x="1239" y="-261"/>
      <point x="1234" y="-249"/>
      <point x="1219" y="-249" type="curve" smooth="yes"/>
    </contour>
    <contour>
      <point x="1596" y="844" type="line" smooth="yes"/>
      <point x="1551" y="844"/>
      <point x="1530" y="824"/>
      <point x="1521" y="772" type="curve" smooth="yes"/>
      <point x="1511" y="720"/>
      <point x="1526" y="700"/>
      <point x="1571" y="700" type="curve" smooth="yes"/>
      <point x="2265" y="700" type="line" smooth="yes"/>
      <point x="2310" y="700"/>
      <point x="2331" y="720"/>
      <point x="2341" y="772" type="curve" smooth="yes"/>
      <point x="2350" y="824"/>
      <point x="2335" y="844"/>
      <point x="2290" y="844" type="curve" smooth="yes"/>
    </contour>
  </outline>
</glyph>
